<svg width="135" height="66" viewBox="0 0 135 66" fill="none" xmlns="http://www.w3.org/2000/svg">
<path d="M60.1247 0.104996C60.274 0.254288 62.364 0.664818 64.7899 1.03803C74.3815 2.5682 82.2936 5.44194 89.0861 9.88318C92.333 12.0478 96.5876 16.0412 98.0059 18.3178L98.9016 19.736L100.581 18.6537C104.5 16.1532 111.479 15.668 116.256 17.4967C118.906 18.5417 122.115 21.5647 123.459 24.3265C124.504 26.4165 124.952 30.2606 124.579 33.321C123.981 37.8368 120.473 42.3154 116.219 44.0322C114.315 44.8159 113.382 44.9279 109.538 44.9279C104.388 44.9279 102.074 44.2188 99.3867 41.9422L97.8566 40.6359L96.2518 42.614C90.6909 49.4064 79.9423 54.8553 66.8052 57.5052C62.9238 58.2889 61.5429 58.3635 52.2499 58.3262C45.98 58.3262 41.2028 58.1769 39.9339 57.9157C30.0811 55.8257 26.9461 54.8553 21.3106 52.1682C14.5554 48.9586 9.70366 45.2264 9.70366 43.2111C9.70366 42.502 9.51705 42.1288 9.14384 42.1288C8.69598 42.1288 8.58402 41.4197 8.58402 37.8368V33.5449H14.742H20.9V37.8368C20.9 41.4197 20.7881 42.1288 20.3402 42.1288C19.967 42.1288 19.7804 42.5393 19.7804 43.435V44.7413H24.6322H29.4839V43.435C29.4839 42.5393 29.2973 42.1288 28.9241 42.1288C28.439 42.1288 28.3643 40.5986 28.3643 30.7458C28.3643 20.893 28.439 19.3628 28.9241 19.3628C29.2973 19.3628 29.4839 18.9523 29.4839 18.0565V16.7503H24.6322H19.7804V18.0565C19.7804 18.9523 19.967 19.3628 20.3402 19.3628C20.7881 19.3628 20.9 20.0346 20.9 23.2815V27.2003H14.742H8.58402V23.2815C8.58402 20.0346 8.69598 19.3628 9.14384 19.3628C9.55437 19.3628 9.70366 18.9523 9.70366 18.0565V16.713L4.96385 16.8249L0.186729 16.9369L0.0747647 17.9819C0.00012207 18.6537 0.149407 19.0642 0.52262 19.2135C1.04512 19.4001 1.11976 20.8183 1.11976 30.7831C1.11976 40.6359 1.04512 42.1288 0.559942 42.1288C0.186729 42.1288 0.00012207 42.5393 0.00012207 43.435V44.7413H3.65761H7.27778L8.91991 46.6447C10.562 48.548 15.6751 52.84 16.7947 53.2505C17.0933 53.3625 17.6158 53.6611 17.9143 53.885C18.6608 54.5195 24.4083 57.5052 26.4982 58.3262C34.8582 61.7225 42.8077 63.7751 52.9964 65.156C60.1621 66.1264 77.9643 66.1264 84.9061 65.156C104.089 62.4689 119.503 56.3109 127.714 47.9882C131.819 43.8456 133.498 41.0091 134.543 36.5306C136.82 26.4538 129.617 16.489 114.838 9.28604C108.717 6.30033 103.865 4.6582 95.6173 2.75481C87.5932 0.926071 81.5845 0.291603 70.3508 0.0676804C64.6033 -0.0442886 60.0128 -0.00696564 60.1247 0.104996Z" fill="black"/>
<path d="M56.8776 16.1904C56.691 16.6756 55.0116 16.7502 44.9348 16.7502H33.2159V18.0565C33.2159 18.9522 33.4025 19.3627 33.7758 19.3627C34.2609 19.3627 34.3356 20.8929 34.3356 30.7457C34.3356 40.5985 34.2609 42.1287 33.7758 42.1287C33.4025 42.1287 33.2159 42.5392 33.2159 43.435V44.7412H45.1588C55.4594 44.7412 57.1389 44.8158 57.3255 45.301C57.4748 45.6369 58.0346 45.8608 58.6317 45.8608H59.7141V41.5689V37.2769H58.5944C57.9226 37.2769 57.3628 37.5009 57.2509 37.8368C57.0643 38.3219 55.8326 38.3966 49.3761 38.3966H41.7625L41.8745 35.8961L41.9864 33.3955H46.5396C50.4584 33.3582 51.1302 33.4328 51.4661 33.9927C51.69 34.3659 52.2871 34.6644 52.8096 34.6644H53.7427V30.3725V26.0806H52.623C51.9512 26.0806 51.3914 26.3045 51.2795 26.6404C51.0928 27.0882 50.1971 27.2002 46.4277 27.2002H41.7998V25.1475V23.0948H49.2268C55.4968 23.0948 56.691 23.1695 56.8776 23.6547C56.9896 23.9906 57.5494 24.2145 58.2212 24.2145H59.3409V19.9225V15.6306H58.2212C57.5494 15.6306 56.9896 15.8545 56.8776 16.1904Z" fill="black"/>
<path d="M71.9183 17.3472C69.455 18.131 68.7086 18.6161 66.8052 20.4822C65.4243 21.8258 64.1554 23.4679 63.5583 24.8488C62.6252 26.7522 62.5133 27.4613 62.5506 30.7456C62.5506 33.7686 62.7372 34.8136 63.409 36.3438C65.9468 41.9419 71.2091 45.1143 78.0389 45.1143C81.3605 45.1143 84.2716 44.2932 87.5559 42.4644C88.9368 41.6807 89.8698 41.3821 90.4669 41.5314C91.0641 41.6807 91.5493 41.5314 91.9598 41.0462C92.7062 40.2252 92.8928 40.7103 89.9444 36.0452C89.0487 34.6643 88.2277 33.5447 88.1157 33.5447C87.4812 33.582 86.5855 34.6643 86.5855 35.3361C86.5855 35.9332 85.9884 36.4184 84.085 37.3514C81.8457 38.4337 81.2113 38.583 78.5614 38.583C75.0906 38.5457 73.0752 37.7246 71.5077 35.672C69.5297 33.0595 69.5297 28.0584 71.545 25.6699C73.859 22.9454 78.5241 22.0124 82.5548 23.4679C85.4659 24.5129 86.5482 25.2966 86.5855 26.3043C86.5855 26.7522 86.9587 27.2374 87.4812 27.4986C88.3396 27.8718 88.4889 27.7599 89.9444 25.4086C92.8928 20.7808 92.7062 21.2659 91.9598 20.4449C91.5493 19.997 91.0641 19.8104 90.4669 19.9597C89.9071 20.109 88.8621 19.7358 87.2573 18.8401C82.5175 16.1903 77.1432 15.6678 71.9183 17.3472Z" fill="black"/>
<path d="M107.858 22.9457C103.94 24.252 101.887 26.9018 101.887 30.7459C101.887 33.9555 103.641 36.8293 106.366 37.9862C109.426 39.2925 112.076 38.8446 114.502 36.6053C117.973 33.3584 118.085 28.2827 114.726 25.0731C112.71 23.1324 109.948 22.274 107.858 22.9457Z" fill="black"/>
</svg>
